{
    "asset" : {
        "generator" : "Khronos glTF Blender I/O v1.2.75",
        "version" : "2.0"
    },
    "scene" : 0,
    "scenes" : [
        {
            "name" : "Scene",
            "nodes" : [
                0
            ]
        }
    ],
    "nodes" : [
        {
            "mesh" : 0,
            "name" : "background",
            "scale" : [
                5.992804527282715,
                5.992804527282715,
                5.992804527282715
            ],
            "translation" : [
                -0.15557163953781128,
                -0.2296498417854309,
                2.238987922668457
            ]
        }
    ],
    "materials" : [
        {
            "doubleSided" : true,
            "emissiveFactor" : [
                0,
                0,
                0
            ],
            "name" : "black2",
            "pbrMetallicRoughness" : {
                "baseColorFactor" : [
                    0.014996729791164398,
                    0.014996729791164398,
                    0.014996729791164398,
                    1
                ],
                "metallicFactor" : 0,
                "roughnessFactor" : 0.760869562625885
            }
        }
    ],
    "meshes" : [
        {
            "name" : "\ud3c9\uba74.001",
            "primitives" : [
                {
                    "attributes" : {
                        "POSITION" : 0,
                        "NORMAL" : 1,
                        "TEXCOORD_0" : 2
                    },
                    "indices" : 3,
                    "material" : 0
                }
            ]
        }
    ],
    "accessors" : [
        {
            "bufferView" : 0,
            "componentType" : 5126,
            "count" : 118,
            "max" : [
                1,
                1.4277067184448242,
                1
            ],
            "min" : [
                -1,
                0,
                -1
            ],
            "type" : "VEC3"
        },
        {
            "bufferView" : 1,
            "componentType" : 5126,
            "count" : 118,
            "type" : "VEC3"
        },
        {
            "bufferView" : 2,
            "componentType" : 5126,
            "count" : 118,
            "type" : "VEC2"
        },
        {
            "bufferView" : 3,
            "componentType" : 5123,
            "count" : 348,
            "type" : "SCALAR"
        }
    ],
    "bufferViews" : [
        {
            "buffer" : 0,
            "byteLength" : 1416,
            "byteOffset" : 0
        },
        {
            "buffer" : 0,
            "byteLength" : 1416,
            "byteOffset" : 1416
        },
        {
            "buffer" : 0,
            "byteLength" : 944,
            "byteOffset" : 2832
        },
        {
            "buffer" : 0,
            "byteLength" : 696,
            "byteOffset" : 3776
        }
    ],
    "buffers" : [
        {
            "byteLength" : 4472,
            "uri" : "data:application/octet-stream;base64,"
        }
    ]
}
