{
    "asset" : {
        "generator" : "Khronos glTF Blender I/O v1.2.75",
        "version" : "2.0"
    },
    "scene" : 0,
    "scenes" : [
        {
            "name" : "Scene",
            "nodes" : [
                0,
                1,
                2,
                3
            ]
        }
    ],
    "nodes" : [
        {
            "mesh" : 0,
            "name" : "\uc544\uc774\ucf54\uc2a4\ud53c\uc5b4.001",
            "rotation" : [
                0.14899905025959015,
                0.9483526349067688,
                -0.043466027826070786,
                0.2766536772251129
            ],
            "scale" : [
                0.14766551554203033,
                0.14766551554203033,
                0.14766551554203033
            ],
            "translation" : [
                0.5613270998001099,
                1.8291758298873901,
                0.9050782918930054
            ]
        },
        {
            "name" : "\uce74\uba54\ub77c",
            "rotation" : [
                0.58381587266922,
                0.3724905848503113,
                -0.34252381324768066,
                0.6348915100097656
            ],
            "translation" : [
                5.262877464294434,
                1.2715251445770264,
                3.413876533508301
            ]
        },
        {
            "name" : "\uc601\uc5ed",
            "rotation" : [
                -0.3026430010795593,
                -0.1601647436618805,
                -0.4183609187602997,
                0.8412660956382751
            ],
            "translation" : [
                2.071671724319458,
                1.4286248683929443,
                -0.9062716960906982
            ]
        },
        {
            "name" : "\uc601\uc5ed.001",
            "rotation" : [
                0.47880929708480835,
                -0.12463964521884918,
                0.28630149364471436,
                0.8205108642578125
            ],
            "translation" : [
                -1.4123692512512207,
                1.4286248683929443,
                2.2349343299865723
            ]
        }
    ],
    "meshes" : [
        {
            "name" : "\uc544\uc774\ucf54\uc2a4\ud53c\uc5b4.001",
            "primitives" : [
                {
                    "attributes" : {
                        "POSITION" : 0,
                        "NORMAL" : 1,
                        "TEXCOORD_0" : 2
                    },
                    "indices" : 3
                }
            ]
        }
    ],
    "accessors" : [
        {
            "bufferView" : 0,
            "componentType" : 5126,
            "count" : 5926,
            "max" : [
                12.382683753967285,
                1,
                14.44051742553711
            ],
            "min" : [
                -5.932528495788574,
                -15.032883644104004,
                -5.089173316955566
            ],
            "type" : "VEC3"
        },
        {
            "bufferView" : 1,
            "componentType" : 5126,
            "count" : 5926,
            "type" : "VEC3"
        },
        {
            "bufferView" : 2,
            "componentType" : 5126,
            "count" : 5926,
            "type" : "VEC2"
        },
        {
            "bufferView" : 3,
            "componentType" : 5123,
            "count" : 9468,
            "type" : "SCALAR"
        }
    ],
    "bufferViews" : [
        {
            "buffer" : 0,
            "byteLength" : 71112,
            "byteOffset" : 0
        },
        {
            "buffer" : 0,
            "byteLength" : 71112,
            "byteOffset" : 71112
        },
        {
            "buffer" : 0,
            "byteLength" : 47408,
            "byteOffset" : 142224
        },
        {
            "buffer" : 0,
            "byteLength" : 18936,
            "byteOffset" : 189632
        }
    ],
    "buffers" : [
        {
            "byteLength" : 208568,
            "uri" : "data:application/octet-stream;base64,"
        }
    ]
}
